<svg xmlns="http://www.w3.org/2000/svg" xmlns:xlink="http://www.w3.org/1999/xlink" version="1.1" id="Layer_1" x="0px" y="0px" viewBox="0 0 512 512" style="enable-background:new 0 0 512 512;" xml:space="preserve">
<circle style="fill: #17263c;" cx="256" cy="256" r="256"/>
<path style="fill: #3e507e;" d="M220,232H88c-13.2,0-24,10.8-24,24v104c0,13.2,10.8,24,24,24h15.728  c-0.38,5.444-1.296,10.348-3.536,13.936c-2.336,3.748-0.12,5.572,6.016,3.752c8.596-2.544,16.452-7.68,19.904-17.696H220  c13.2,0,24-10.8,24-24v-104C244,242.8,233.2,232,220,232z"/>
<g>
	<path style="fill: #33436b;" d="M220,232h-16c13.2,0,24,10.8,24,24v104c0,13.2-10.8,24-24,24h16c13.2,0,24-10.8,24-24V256   C244,242.8,233.2,232,220,232z"/>
	<path style="fill: #33436b;" d="M220,232h-20v76.444C200,332.056,219.54,352,242.668,352H244v-96C244,242.8,233.2,232,220,232z"/>
</g>
<path style="fill: #3e5fb2;" d="M242.668,124h190.664C452.4,124,468,139.156,468,158.228v150.216c0,19.076-15.6,35.564-34.668,35.564  h-22.716c0.564,8,1.936,15.228,5.328,20.436c3.388,5.232,3.24,7.88-4.164,6.148c-14.196-3.292-27.884-10.82-33.5-26.584H242.668  C223.6,344.008,208,327.52,208,308.444V158.228C208,139.156,223.6,124,242.668,124z"/>
<path style="fill: #355094;" d="M433.332,124h-16C436.4,124,452,139.156,452,158.228v150.216c0,19.076-15.6,35.564-34.668,35.564h16  c19.068,0,34.668-16.488,34.668-35.564V158.228C468,139.156,452.4,124,433.332,124z"/>
<g>
	<circle style="fill:#F5F5F5;" cx="280" cy="268" r="12"/>
	<circle style="fill:#F5F5F5;" cx="320" cy="268" r="12"/>
	<circle style="fill:#F5F5F5;" cx="360" cy="268" r="12"/>
	<circle style="fill:#F5F5F5;" cx="400" cy="268" r="12"/>
	<circle style="fill:#F5F5F5;" cx="100" cy="348" r="8"/>
	<circle style="fill:#F5F5F5;" cx="132" cy="348" r="8"/>
	<circle style="fill:#F5F5F5;" cx="164" cy="348" r="8"/>
</g>
<g>
</g>
<g>
</g>
<g>
</g>
<g>
</g>
<g>
</g>
<g>
</g>
<g>
</g>
<g>
</g>
<g>
</g>
<g>
</g>
<g>
</g>
<g>
</g>
<g>
</g>
<g>
</g>
<g>
</g>
</svg>