<svg id="iconfinder_square-facebook_317727" xmlns="http://www.w3.org/2000/svg" width="22.767" height="22.767" viewBox="0 0 22.767 22.767">
  <path id="Path_223" data-name="Path 223" d="M22.767,21.344a1.423,1.423,0,0,1-1.423,1.423H1.423A1.423,1.423,0,0,1,0,21.344V1.423A1.423,1.423,0,0,1,1.423,0H21.344a1.423,1.423,0,0,1,1.423,1.423Z" fill="#3b5998"/>
  <path id="f" d="M19.4,24.209V15.672h2.846l.711-3.557H19.4V10.692a1.887,1.887,0,0,1,2.134-2.134H22.96V5H20.115C17.5,5,15.846,7.05,15.846,9.98v2.134H13v3.557h2.846v8.538Z" transform="translate(-3.751 -1.443)" fill="#fff"/>
</svg>
