<svg xmlns="http://www.w3.org/2000/svg" width="23.161" height="22.59" viewBox="0 0 23.161 22.59">
  <path id="iconfinder_mark-github_298822" d="M11.58,0A11.581,11.581,0,0,0,7.92,22.569c.579.106.79-.252.79-.557,0-.276-.011-1.189-.016-2.156-3.22.7-3.9-1.366-3.9-1.366A3.071,3.071,0,0,0,3.507,16.8c-1.052-.718.08-.7.08-.7a2.43,2.43,0,0,1,1.775,1.193,2.465,2.465,0,0,0,3.37.961A2.476,2.476,0,0,1,9.467,16.7c-2.571-.293-5.275-1.286-5.275-5.724A4.483,4.483,0,0,1,5.383,7.869,4.171,4.171,0,0,1,5.5,4.8s.971-.311,3.185,1.187a10.963,10.963,0,0,1,5.8,0c2.21-1.5,3.182-1.187,3.182-1.187a4.154,4.154,0,0,1,.116,3.065,4.47,4.47,0,0,1,1.19,3.108c0,4.449-2.709,5.428-5.288,5.715a2.759,2.759,0,0,1,.786,2.143c0,1.548-.016,2.8-.016,3.178,0,.308.211.669.8.556A11.583,11.583,0,0,0,11.58,0Z" fill="#fff"/>
</svg>
