<svg xmlns="http://www.w3.org/2000/svg" xmlns:xlink="http://www.w3.org/1999/xlink" width="923" height="213" viewBox="0 0 923 213"><defs><linearGradient id="a" x1="0.5" x2="0.5" y2="1" gradientUnits="objectBoundingBox"><stop offset="0" stop-color="#00c6f2"/><stop offset="1" stop-color="#0e5978"/></linearGradient><filter id="b" x="412" y="0" width="278" height="182" filterUnits="userSpaceOnUse"><feOffset dy="2" input="SourceAlpha"/><feGaussianBlur stdDeviation="4" result="c"/><feFlood/><feComposite operator="in" in2="c"/><feComposite in="SourceGraphic"/></filter><filter id="d" x="412" y="0" width="278" height="182" filterUnits="userSpaceOnUse"><feOffset dy="1" input="SourceAlpha"/><feGaussianBlur stdDeviation="4.5" result="e"/><feFlood flood-color="#707070" result="f"/><feComposite operator="out" in="SourceGraphic" in2="e"/><feComposite operator="in" in="f"/><feComposite operator="in" in2="SourceGraphic"/></filter><linearGradient id="g" x1="0.5" x2="0.5" y2="1" gradientUnits="objectBoundingBox"><stop offset="0" stop-color="#a7eafd"/><stop offset="1" stop-color="#76bcdb"/></linearGradient><filter id="h" x="451.5" y="41.5" width="219" height="141" filterUnits="userSpaceOnUse"><feOffset dy="1" input="SourceAlpha"/><feGaussianBlur stdDeviation="4.5" result="i"/><feFlood/><feComposite operator="in" in2="i"/><feComposite in="SourceGraphic"/></filter><filter id="j" x="451.5" y="41.5" width="219" height="141" filterUnits="userSpaceOnUse"><feOffset dy="1" input="SourceAlpha"/><feGaussianBlur stdDeviation="4.5" result="k"/><feFlood flood-color="#8f8f8f" result="l"/><feComposite operator="out" in="SourceGraphic" in2="k"/><feComposite operator="in" in="l"/><feComposite operator="in" in2="SourceGraphic"/></filter><linearGradient id="m" x1="0.5" x2="0.5" y2="1" gradientUnits="objectBoundingBox"><stop offset="0" stop-color="#e2fafc"/><stop offset="1" stop-color="#bad8e5"/></linearGradient><filter id="n" x="484.5" y="69.5" width="172" height="114" filterUnits="userSpaceOnUse"><feOffset dy="2" input="SourceAlpha"/><feGaussianBlur stdDeviation="4.5" result="o"/><feFlood/><feComposite operator="in" in2="o"/><feComposite in="SourceGraphic"/></filter><filter id="p" x="484.5" y="69.5" width="172" height="114" filterUnits="userSpaceOnUse"><feOffset dy="1" input="SourceAlpha"/><feGaussianBlur stdDeviation="4.5" result="q"/><feFlood flood-color="#8a8a8a" result="r"/><feComposite operator="out" in="SourceGraphic" in2="q"/><feComposite operator="in" in="r"/><feComposite operator="in" in2="SourceGraphic"/></filter><filter id="s" x="0" y="49" width="430" height="164" filterUnits="userSpaceOnUse"><feOffset dy="1" input="SourceAlpha"/><feGaussianBlur stdDeviation="2" result="t"/><feFlood flood-opacity="0.6"/><feComposite operator="in" in2="t"/><feComposite in="SourceGraphic"/></filter><filter id="u" x="0" y="49" width="430" height="164" filterUnits="userSpaceOnUse"><feOffset dy="1" input="SourceAlpha"/><feGaussianBlur stdDeviation="2" result="v"/><feFlood flood-color="#232323" flood-opacity="0.471" result="w"/><feComposite operator="out" in="SourceGraphic" in2="v"/><feComposite operator="in" in="w"/><feComposite operator="in" in2="SourceGraphic"/></filter><filter id="x" x="670" y="49" width="253" height="164" filterUnits="userSpaceOnUse"><feOffset dy="1" input="SourceAlpha"/><feGaussianBlur stdDeviation="2" result="y"/><feFlood flood-opacity="0.6"/><feComposite operator="in" in2="y"/><feComposite in="SourceGraphic"/></filter><filter id="z" x="670" y="49" width="253" height="164" filterUnits="userSpaceOnUse"><feOffset dy="1" input="SourceAlpha"/><feGaussianBlur stdDeviation="2" result="aa"/><feFlood flood-color="#232323" flood-opacity="0.471" result="ab"/><feComposite operator="out" in="SourceGraphic" in2="aa"/><feComposite operator="in" in="ab"/><feComposite operator="in" in2="SourceGraphic"/></filter></defs><g transform="translate(-906 -1635)"><g transform="translate(-593.414 1390.008)"><g transform="translate(1923 255)"><g data-type="innerShadowGroup"><g transform="matrix(1, 0, 0, 1, -423.59, -10.01)" filter="url(#b)"><path d="M35.9,158h-.071C16.041,158,0,141.279,0,120.653c0-19.5,14.338-35.509,32.622-37.2A73.022,73.022,0,0,1,31.34,69.793C31.34,31.248,61.317,0,98.295,0c26.07,0,48.659,15.529,59.718,38.2A40.189,40.189,0,0,1,176.5,33.709c23.052,0,41.74,19.48,41.74,43.509a45.733,45.733,0,0,1-.406,6.09l.334,0c19.787,0,35.828,16.721,35.828,37.347,0,20.6-16,37.306-35.757,37.347H35.9Z" transform="translate(424 10)" fill="url(#a)"/></g><g transform="matrix(1, 0, 0, 1, -423.59, -10.01)" filter="url(#d)"><path d="M35.9,158h-.071C16.041,158,0,141.279,0,120.653c0-19.5,14.338-35.509,32.622-37.2A73.022,73.022,0,0,1,31.34,69.793C31.34,31.248,61.317,0,98.295,0c26.07,0,48.659,15.529,59.718,38.2A40.189,40.189,0,0,1,176.5,33.709c23.052,0,41.74,19.48,41.74,43.509a45.733,45.733,0,0,1-.406,6.09l.334,0c19.787,0,35.828,16.721,35.828,37.347,0,20.6-16,37.306-35.757,37.347H35.9Z" transform="translate(424 10)" fill="#fff"/></g></g><g data-type="innerShadowGroup"><g transform="matrix(1, 0, 0, 1, -423.59, -10.01)" filter="url(#h)"><path d="M27.136,114h-.054a26.942,26.942,0,0,1-2.423-53.787,50.63,50.63,0,0,1,94.784-32.651,31.475,31.475,0,0,1,45.222,32.546h.253A26.947,26.947,0,1,1,164.971,114H27.136Z" transform="translate(465 54)" fill="url(#g)"/></g><g transform="matrix(1, 0, 0, 1, -423.59, -10.01)" filter="url(#j)"><path d="M27.136,114h-.054a26.942,26.942,0,0,1-2.423-53.787,50.63,50.63,0,0,1,94.784-32.651,31.475,31.475,0,0,1,45.222,32.546h.253A26.947,26.947,0,1,1,164.971,114H27.136Z" transform="translate(465 54)" fill="#fff"/></g></g><g data-type="innerShadowGroup"><g transform="matrix(1, 0, 0, 1, -423.59, -10.01)" filter="url(#n)"><path d="M20.494,87h-.041a20.57,20.57,0,0,1-1.83-41.048,38.828,38.828,0,0,1-.732-7.522A38.193,38.193,0,0,1,90.2,21.034a23.625,23.625,0,0,1,10.556-2.473,23.893,23.893,0,0,1,23.828,23.958,24.3,24.3,0,0,1-.232,3.353h.191A20.565,20.565,0,0,1,124.588,87H20.494Z" transform="translate(498 81)" fill="url(#m)"/></g><g transform="matrix(1, 0, 0, 1, -423.59, -10.01)" filter="url(#p)"><path d="M20.494,87h-.041a20.57,20.57,0,0,1-1.83-41.048,38.828,38.828,0,0,1-.732-7.522A38.193,38.193,0,0,1,90.2,21.034a23.625,23.625,0,0,1,10.556-2.473,23.893,23.893,0,0,1,23.828,23.958,24.3,24.3,0,0,1-.232,3.353h.191A20.565,20.565,0,0,1,124.588,87H20.494Z" transform="translate(498 81)" fill="#fff"/></g></g><g transform="translate(108.15 84.29)"><g transform="translate(43.148 21.405) rotate(-16)"><path d="M2,0H21.049a2,2,0,0,1,2,2V9.89a0,0,0,0,1,0,0H0a0,0,0,0,1,0,0V2A2,2,0,0,1,2,0Z" transform="translate(0 0)" fill="#10486e"/><rect width="23.049" height="3.031" transform="translate(0 11.804)" fill="#10486e"/><rect width="23.049" height="3.031" transform="translate(0 39.479)" fill="#10486e"/><rect width="23.049" height="20.816" transform="translate(0 16.749)" fill="#10486e"/><path d="M0,0H23.049a0,0,0,0,1,0,0V7.89a2,2,0,0,1-2,2H2a2,2,0,0,1-2-2V0A0,0,0,0,1,0,0Z" transform="translate(0 44.424)" fill="#10486e"/></g><g transform="translate(24.331 0)"><path d="M2,0H16.869a2,2,0,0,1,2,2V13.9a0,0,0,0,1,0,0H0a0,0,0,0,1,0,0V2A2,2,0,0,1,2,0Z" fill="#10486e"/><rect width="18.869" height="4.345" transform="translate(0 15.89)" fill="#10486e"/><rect width="18.869" height="4.345" transform="translate(0 53.38)" fill="#10486e"/><rect width="18.869" height="29.421" transform="translate(0 22.097)" fill="#10486e"/><path d="M0,0H18.869a0,0,0,0,1,0,0V11.9a2,2,0,0,1-2,2H2a2,2,0,0,1-2-2V0A0,0,0,0,1,0,0Z" transform="translate(0 59.711)" fill="#10486e"/></g><g transform="translate(0 9.683)"><path d="M2,0H19.476a2,2,0,0,1,2,2V13.9a0,0,0,0,1,0,0H0a0,0,0,0,1,0,0V2A2,2,0,0,1,2,0Z" fill="#10486e"/><rect width="21.476" height="4.345" transform="translate(0 43.697)" fill="#10486e"/><path d="M21.476,25.945H0V0H21.476V25.944ZM5.7,3.762a2,2,0,0,0-2,2v7.121a2,2,0,0,0,2,2H15.777a2,2,0,0,0,2-2V5.762a2,2,0,0,0-2-2Z" transform="translate(0 15.89)" fill="#10486e"/><path d="M0,0H21.476a0,0,0,0,1,0,0V11.9a2,2,0,0,1-2,2H2a2,2,0,0,1-2-2V0A0,0,0,0,1,0,0Z" transform="translate(0 50.028)" fill="#10486e"/></g></g></g></g><g data-type="innerShadowGroup"><g transform="matrix(1, 0, 0, 1, 906, 1635)" filter="url(#s)"><text transform="translate(6 54)" fill="#00708d" font-size="87" font-family="SegoePrint-Bold, Segoe Print" font-weight="700"><tspan x="0" y="109">Interview</tspan></text></g><g transform="matrix(1, 0, 0, 1, 906, 1635)" filter="url(#u)"><text transform="translate(6 54)" fill="#fff" font-size="87" font-family="SegoePrint-Bold, Segoe Print" font-weight="700"><tspan x="0" y="109">Interview</tspan></text></g></g><g data-type="innerShadowGroup"><g transform="matrix(1, 0, 0, 1, 906, 1635)" filter="url(#x)"><text transform="translate(676 54)" fill="#00708d" font-size="87" font-family="SegoePrint-Bold, Segoe Print" font-weight="700"><tspan x="0" y="109">ream</tspan></text></g><g transform="matrix(1, 0, 0, 1, 906, 1635)" filter="url(#z)"><text transform="translate(676 54)" fill="#fff" font-size="87" font-family="SegoePrint-Bold, Segoe Print" font-weight="700"><tspan x="0" y="109">ream</tspan></text></g></g></g></svg>