<svg xmlns="http://www.w3.org/2000/svg" width="10.577" height="9.125" viewBox="0 0 10.577 9.125"><defs><style>.a{fill:#ffd500;}.b{fill:#5d5d5d;}</style></defs><path class="a" d="M8.731,11.2l.056-7.628s-.345-.129-.624.336S6.995,6.386,6.995,6.386L4.01,6.614a.546.546,0,0,0-.352.975L5.926,9.36l-.68,2.629a.6.6,0,0,0,.921.6Z" transform="translate(-3.443 -3.554)"/><g transform="translate(5.288 0.015)"><path class="b" d="M9.515,11.2l2.565,1.4A.6.6,0,0,0,13,12L12.32,9.37,14.589,7.6a.546.546,0,0,0-.352-.975L11.251,6.4s-1.019-2.177-1.168-2.484a.733.733,0,0,0-.564-.338Z" transform="translate(-9.515 -3.573)"/></g></svg>